<mxfile host="app.diagrams.net" modified="2023-03-27T05:45:28.192Z" agent="5.0 (Macintosh; Intel Mac OS X 10_15_7) AppleWebKit/537.36 (KHTML, like Gecko) Chrome/111.0.0.0 Safari/537.36" etag="I3lkRs-M5cyPaymz75Lr" version="20.5.3" type="github">
  <diagram id="iKo872p8oUQQ_BBKLFRu" name="第 1 页">
    <mxGraphModel dx="1188" dy="641" grid="1" gridSize="10" guides="1" tooltips="1" connect="1" arrows="1" fold="1" page="1" pageScale="1" pageWidth="827" pageHeight="1169" math="0" shadow="0">
      <root>
        <mxCell id="0" />
        <mxCell id="1" parent="0" />
        <mxCell id="TRZcLdJGhBm2Cf13QnNO-4" style="edgeStyle=orthogonalEdgeStyle;rounded=0;orthogonalLoop=1;jettySize=auto;html=1;exitX=0.5;exitY=1;exitDx=0;exitDy=0;entryX=0.5;entryY=0;entryDx=0;entryDy=0;" edge="1" parent="1" source="TRZcLdJGhBm2Cf13QnNO-1" target="TRZcLdJGhBm2Cf13QnNO-3">
          <mxGeometry relative="1" as="geometry" />
        </mxCell>
        <mxCell id="TRZcLdJGhBm2Cf13QnNO-1" value="开始" style="rounded=1;whiteSpace=wrap;html=1;" vertex="1" parent="1">
          <mxGeometry x="354" y="110" width="120" height="60" as="geometry" />
        </mxCell>
        <mxCell id="TRZcLdJGhBm2Cf13QnNO-2" value="结束" style="rounded=1;whiteSpace=wrap;html=1;" vertex="1" parent="1">
          <mxGeometry x="354" y="690" width="120" height="60" as="geometry" />
        </mxCell>
        <mxCell id="TRZcLdJGhBm2Cf13QnNO-6" style="edgeStyle=orthogonalEdgeStyle;rounded=0;orthogonalLoop=1;jettySize=auto;html=1;exitX=0.5;exitY=1;exitDx=0;exitDy=0;entryX=0.5;entryY=0;entryDx=0;entryDy=0;" edge="1" parent="1" source="TRZcLdJGhBm2Cf13QnNO-3" target="TRZcLdJGhBm2Cf13QnNO-5">
          <mxGeometry relative="1" as="geometry" />
        </mxCell>
        <mxCell id="TRZcLdJGhBm2Cf13QnNO-3" value="输入用户名" style="rounded=0;whiteSpace=wrap;html=1;" vertex="1" parent="1">
          <mxGeometry x="354" y="210" width="120" height="60" as="geometry" />
        </mxCell>
        <mxCell id="TRZcLdJGhBm2Cf13QnNO-8" value="" style="edgeStyle=orthogonalEdgeStyle;rounded=0;orthogonalLoop=1;jettySize=auto;html=1;" edge="1" parent="1" source="TRZcLdJGhBm2Cf13QnNO-5" target="TRZcLdJGhBm2Cf13QnNO-7">
          <mxGeometry relative="1" as="geometry" />
        </mxCell>
        <mxCell id="TRZcLdJGhBm2Cf13QnNO-9" value="是" style="edgeLabel;html=1;align=center;verticalAlign=middle;resizable=0;points=[];" vertex="1" connectable="0" parent="TRZcLdJGhBm2Cf13QnNO-8">
          <mxGeometry x="0.0111" y="-1" relative="1" as="geometry">
            <mxPoint as="offset" />
          </mxGeometry>
        </mxCell>
        <mxCell id="TRZcLdJGhBm2Cf13QnNO-11" value="" style="edgeStyle=orthogonalEdgeStyle;rounded=0;orthogonalLoop=1;jettySize=auto;html=1;" edge="1" parent="1" source="TRZcLdJGhBm2Cf13QnNO-5" target="TRZcLdJGhBm2Cf13QnNO-10">
          <mxGeometry relative="1" as="geometry" />
        </mxCell>
        <mxCell id="TRZcLdJGhBm2Cf13QnNO-12" value="否" style="edgeLabel;html=1;align=center;verticalAlign=middle;resizable=0;points=[];" vertex="1" connectable="0" parent="TRZcLdJGhBm2Cf13QnNO-11">
          <mxGeometry x="-0.1492" relative="1" as="geometry">
            <mxPoint as="offset" />
          </mxGeometry>
        </mxCell>
        <mxCell id="TRZcLdJGhBm2Cf13QnNO-5" value="用户名是不是“seven”" style="rhombus;whiteSpace=wrap;html=1;" vertex="1" parent="1">
          <mxGeometry x="374" y="330" width="80" height="80" as="geometry" />
        </mxCell>
        <mxCell id="TRZcLdJGhBm2Cf13QnNO-15" style="edgeStyle=orthogonalEdgeStyle;rounded=0;orthogonalLoop=1;jettySize=auto;html=1;exitX=0.5;exitY=1;exitDx=0;exitDy=0;entryX=0.5;entryY=0;entryDx=0;entryDy=0;" edge="1" parent="1" source="TRZcLdJGhBm2Cf13QnNO-7" target="TRZcLdJGhBm2Cf13QnNO-14">
          <mxGeometry relative="1" as="geometry" />
        </mxCell>
        <mxCell id="TRZcLdJGhBm2Cf13QnNO-7" value="用户输入密码" style="whiteSpace=wrap;html=1;" vertex="1" parent="1">
          <mxGeometry x="570" y="340" width="120" height="60" as="geometry" />
        </mxCell>
        <mxCell id="TRZcLdJGhBm2Cf13QnNO-13" style="edgeStyle=orthogonalEdgeStyle;rounded=0;orthogonalLoop=1;jettySize=auto;html=1;exitX=0.5;exitY=1;exitDx=0;exitDy=0;entryX=0.5;entryY=0;entryDx=0;entryDy=0;" edge="1" parent="1" source="TRZcLdJGhBm2Cf13QnNO-10" target="TRZcLdJGhBm2Cf13QnNO-2">
          <mxGeometry relative="1" as="geometry" />
        </mxCell>
        <mxCell id="TRZcLdJGhBm2Cf13QnNO-10" value="输出“用户名有误”" style="whiteSpace=wrap;html=1;" vertex="1" parent="1">
          <mxGeometry x="354" y="480" width="120" height="70" as="geometry" />
        </mxCell>
        <mxCell id="TRZcLdJGhBm2Cf13QnNO-17" value="" style="edgeStyle=orthogonalEdgeStyle;rounded=0;orthogonalLoop=1;jettySize=auto;html=1;" edge="1" parent="1" source="TRZcLdJGhBm2Cf13QnNO-14" target="TRZcLdJGhBm2Cf13QnNO-16">
          <mxGeometry relative="1" as="geometry" />
        </mxCell>
        <mxCell id="TRZcLdJGhBm2Cf13QnNO-18" value="是" style="edgeLabel;html=1;align=center;verticalAlign=middle;resizable=0;points=[];" vertex="1" connectable="0" parent="TRZcLdJGhBm2Cf13QnNO-17">
          <mxGeometry x="-0.1095" y="3" relative="1" as="geometry">
            <mxPoint as="offset" />
          </mxGeometry>
        </mxCell>
        <mxCell id="TRZcLdJGhBm2Cf13QnNO-20" value="" style="edgeStyle=orthogonalEdgeStyle;rounded=0;orthogonalLoop=1;jettySize=auto;html=1;" edge="1" parent="1" source="TRZcLdJGhBm2Cf13QnNO-14" target="TRZcLdJGhBm2Cf13QnNO-19">
          <mxGeometry relative="1" as="geometry" />
        </mxCell>
        <mxCell id="TRZcLdJGhBm2Cf13QnNO-21" value="否" style="edgeLabel;html=1;align=center;verticalAlign=middle;resizable=0;points=[];" vertex="1" connectable="0" parent="TRZcLdJGhBm2Cf13QnNO-20">
          <mxGeometry x="-0.1915" y="-1" relative="1" as="geometry">
            <mxPoint as="offset" />
          </mxGeometry>
        </mxCell>
        <mxCell id="TRZcLdJGhBm2Cf13QnNO-14" value="密码是不是“123”" style="rhombus;whiteSpace=wrap;html=1;" vertex="1" parent="1">
          <mxGeometry x="590" y="460" width="80" height="80" as="geometry" />
        </mxCell>
        <mxCell id="TRZcLdJGhBm2Cf13QnNO-22" style="edgeStyle=orthogonalEdgeStyle;rounded=0;orthogonalLoop=1;jettySize=auto;html=1;exitX=0.5;exitY=1;exitDx=0;exitDy=0;entryX=1;entryY=0.5;entryDx=0;entryDy=0;" edge="1" parent="1" source="TRZcLdJGhBm2Cf13QnNO-16" target="TRZcLdJGhBm2Cf13QnNO-2">
          <mxGeometry relative="1" as="geometry" />
        </mxCell>
        <mxCell id="TRZcLdJGhBm2Cf13QnNO-16" value="输出“登陆成功”" style="whiteSpace=wrap;html=1;" vertex="1" parent="1">
          <mxGeometry x="730" y="470" width="120" height="60" as="geometry" />
        </mxCell>
        <mxCell id="TRZcLdJGhBm2Cf13QnNO-23" style="edgeStyle=orthogonalEdgeStyle;rounded=0;orthogonalLoop=1;jettySize=auto;html=1;exitX=0.5;exitY=1;exitDx=0;exitDy=0;endArrow=none;endFill=0;" edge="1" parent="1" source="TRZcLdJGhBm2Cf13QnNO-19">
          <mxGeometry relative="1" as="geometry">
            <mxPoint x="630.047619047619" y="720" as="targetPoint" />
          </mxGeometry>
        </mxCell>
        <mxCell id="TRZcLdJGhBm2Cf13QnNO-19" value="输出“密码错误，登陆失败”" style="whiteSpace=wrap;html=1;" vertex="1" parent="1">
          <mxGeometry x="570" y="590" width="120" height="60" as="geometry" />
        </mxCell>
      </root>
    </mxGraphModel>
  </diagram>
</mxfile>
